<svg width="616" height="348" viewBox="0 0 616 348" fill="none" xmlns="http://www.w3.org/2000/svg">
<path d="M203.422 262.798C210.569 262.798 217.121 264.692 223.077 268.48C229.142 272.16 233.961 277.626 237.535 284.877C241.217 292.02 243.058 300.733 243.058 311.015H183.524C183.794 314.222 184.739 317.09 186.365 319.619C188.423 322.541 191.023 324.815 194.163 326.438C197.412 327.953 200.877 328.711 204.559 328.711C208.999 328.711 212.627 327.791 215.442 325.951C218.258 324.003 220.424 321.514 221.94 318.483L241.108 325.951C238.834 330.497 235.857 334.448 232.175 337.803C228.601 341.05 224.323 343.539 219.342 345.271C214.36 347.002 208.674 347.868 202.285 347.868C194.271 347.868 187.178 346.082 181.005 342.511C174.832 338.831 169.959 333.798 166.385 327.412C162.919 321.026 161.187 313.667 161.187 305.333C161.187 296.999 162.973 289.639 166.547 283.254C170.229 276.868 175.211 271.89 181.492 268.318C187.882 264.639 195.191 262.798 203.422 262.798ZM202.772 280.981C200.282 280.981 197.628 281.522 194.812 282.604C191.997 283.687 189.561 285.419 187.503 287.8C185.891 289.68 184.947 292.115 184.668 295.105H219.907C219.644 292.115 218.752 289.68 217.229 287.8C215.389 285.419 213.115 283.687 210.407 282.604C207.808 281.522 205.263 280.981 202.772 280.981Z" fill="black"/>
<path d="M42.2354 262.798C49.3828 262.798 55.9344 264.692 61.8906 268.48C67.9551 272.16 72.7749 277.626 76.3486 284.877C80.0306 292.02 81.871 300.733 81.8711 311.015H22.3379C22.6071 314.222 23.5521 317.09 25.1787 319.619C27.2363 322.541 29.8351 324.815 32.9756 326.438C36.2244 327.954 39.6901 328.711 43.3721 328.711C47.8121 328.711 51.4402 327.791 54.2559 325.951C57.0715 324.003 59.2378 321.514 60.7539 318.483L79.9219 325.951C77.6477 330.497 74.6693 334.448 70.9873 337.803C67.4136 341.049 63.1357 343.539 58.1543 345.271C53.1728 347.002 47.4869 347.868 41.0977 347.868C33.0841 347.868 25.991 346.082 19.8184 342.511C13.6455 338.831 8.77199 333.798 5.19824 327.412C1.73279 321.026 3.17267e-06 313.667 0 305.333C0 296.999 1.78666 289.64 5.36035 283.254C9.0424 276.868 14.0245 271.89 20.3057 268.318C26.6951 264.639 34.0049 262.798 42.2354 262.798ZM41.585 280.981C39.0944 280.982 36.4414 281.522 33.626 282.604C30.8103 283.687 28.373 285.419 26.3154 287.8C24.7033 289.68 23.7602 292.115 23.4814 295.105H58.7197C58.4565 292.115 57.5656 289.68 56.043 287.8C54.202 285.419 51.9279 283.687 49.2207 282.604C46.6216 281.522 44.0758 280.981 41.585 280.981Z" fill="black"/>
<path d="M301.15 285.202C296.169 285.202 291.458 285.798 287.018 286.988C282.686 288.179 279.166 290.126 276.459 292.832C273.836 295.453 272.484 298.786 272.402 302.829L272.397 303.223V345.92H250.955V264.746H272.397V279.45C275.639 274.719 279.592 271.116 284.256 268.643C289.671 265.829 295.302 264.422 301.15 264.422V285.202Z" fill="black"/>
<path d="M384.047 345.92H362.604V304.359C362.604 298.84 361.954 294.565 360.654 291.534C359.463 288.504 357.731 286.339 355.457 285.04C353.183 283.633 350.529 282.93 347.497 282.93C341.974 282.821 337.696 284.499 334.664 287.962C331.831 291.317 330.371 296.247 330.282 302.751L330.278 303.385V345.92H308.835V264.747H328.979L329.93 275.679C332.068 272.387 334.62 269.717 337.588 267.669C342.245 264.422 347.659 262.799 353.832 262.799C360.221 262.799 365.691 264.098 370.239 266.695C374.787 269.293 378.252 273.352 380.635 278.871C383.017 284.283 384.155 291.317 384.047 299.976V345.92Z" fill="black"/>
<path d="M432.81 347.868C424.58 347.868 417.216 346.082 410.718 342.511C404.329 338.831 399.293 333.798 395.611 327.413C392.037 321.027 390.25 313.667 390.25 305.333C390.25 297 392.037 289.64 395.611 283.254C399.185 276.869 404.166 271.89 410.556 268.318C416.945 264.639 424.255 262.799 432.486 262.799C440.824 262.799 448.188 264.639 454.578 268.318C460.967 271.89 465.949 276.869 469.523 283.254C473.096 289.64 474.883 297 474.883 305.333C474.883 313.667 473.096 321.027 469.523 327.413C465.949 333.798 460.967 338.831 454.578 342.511C448.297 346.082 441.041 347.868 432.81 347.868ZM432.81 328.062C436.817 328.062 440.337 327.088 443.369 325.14C446.401 323.192 448.73 320.54 450.354 317.185C452.087 313.721 452.953 309.771 452.953 305.333C452.953 300.896 452.087 297 450.354 293.644C448.622 290.181 446.185 287.475 443.044 285.527C440.012 283.579 436.492 282.605 432.486 282.605C428.587 282.605 425.067 283.579 421.927 285.527C418.894 287.475 416.512 290.181 414.779 293.644C413.046 297 412.18 300.896 412.18 305.333C412.18 309.771 413.046 313.721 414.779 317.185C416.512 320.54 418.949 323.192 422.089 325.14C425.23 327.088 428.803 328.062 432.81 328.062Z" fill="black"/>
<path d="M510.134 264.746H530.439V282.929H510.134V317.509C510.134 320.972 510.892 323.624 512.408 325.464C513.924 327.195 516.144 328.062 519.068 328.062C520.151 328.061 521.342 327.845 522.641 327.412C523.941 326.871 525.295 326.113 526.703 325.139L534.175 341.211C531.576 343.159 528.652 344.728 525.403 345.919C522.263 347.218 519.122 347.867 515.981 347.867C506.993 347.867 500.17 345.648 495.513 341.211C490.965 336.773 488.691 330.442 488.691 322.217V282.929H475.533V264.746H488.691V249.284L510.134 241V264.746Z" fill="black"/>
<path d="M576.364 262.799C583.512 262.799 590.063 264.692 596.02 268.48C602.084 272.16 606.903 277.626 610.477 284.878C614.159 292.021 616 300.734 616 311.016H556.466C556.735 314.223 557.681 317.091 559.308 319.62C561.365 322.542 563.964 324.815 567.104 326.438C570.353 327.954 573.819 328.711 577.501 328.711C581.941 328.711 585.569 327.791 588.385 325.951C591.2 324.003 593.367 321.514 594.883 318.483L614.051 325.951C611.777 330.497 608.798 334.448 605.116 337.803C601.543 341.05 597.265 343.539 592.283 345.271C587.302 347.002 581.616 347.868 575.227 347.868C567.213 347.868 560.119 346.082 553.946 342.511C547.774 338.831 542.901 333.798 539.327 327.412C535.862 321.026 534.129 313.667 534.129 305.333C534.129 296.999 535.916 289.639 539.489 283.254C543.171 276.868 548.153 271.89 554.435 268.318C560.824 264.639 568.134 262.799 576.364 262.799ZM575.714 280.981C573.223 280.981 570.57 281.522 567.755 282.604C564.939 283.687 562.502 285.419 560.444 287.8C558.832 289.68 557.889 292.115 557.61 295.105H592.849C592.585 292.115 591.695 289.68 590.172 287.8C588.331 285.419 586.056 283.687 583.349 282.604C580.75 281.522 578.205 280.981 575.714 280.981Z" fill="black"/>
<path d="M120.244 322.423L142.175 264.746H164.267L130.966 345.92H109.523L76.2227 264.746H98.3145L120.244 322.423Z" fill="black"/>
<path fill-rule="evenodd" clip-rule="evenodd" d="M264.508 8.63407C270.71 2.16197 279.638 -0.952651 288.522 0.256201C294.52 1.07232 300.092 3.80881 304.404 8.05408L308.829 12.4094H314.725C347.547 12.4095 374.155 39.0021 374.155 71.8048V135.762H374.122C374.116 160.651 368.038 176.952 355.156 187.525C338.597 203.039 306.516 204.486 287.888 189.593C280.561 183.735 275.705 177.182 270.531 165.806L299.867 154.621C300.872 156.816 302.769 160.455 305.818 163.737C312.063 170.458 325.173 170.492 330.318 165.806C342.736 154.496 332.115 135.767 310.257 135.767L265.927 135.762C237.129 135.762 213.238 114.77 208.737 87.2617C208.74 87.2675 208.745 87.2736 208.748 87.2794C206.265 70.7318 211.336 65.499 221.259 65.4988H248.134C270.142 65.4987 276.118 56.2815 276.118 39.7133V31.2173H272.134C272.134 31.2173 271.604 35.5864 269.992 39.7133C266.577 48.4578 263.286 54.7841 250.435 54.7842C244.67 54.7842 238.904 54.7707 233.138 54.7672C228.853 54.7645 224.567 54.7673 220.282 54.7852L228.701 46L264.508 8.63407ZM330.863 85.1396C323.038 85.1399 316.695 90.3056 316.695 96.6774H345.031C345.031 90.3055 338.687 85.1396 330.863 85.1396Z" fill="#00A82D"/>
</svg>
