<svg width="832" height="200" viewBox="0 0 832 200" fill="none" xmlns="http://www.w3.org/2000/svg">
<path d="M419.539 52.4763C426.682 52.4763 433.231 54.3708 439.184 58.1589C445.244 61.8387 450.06 67.3043 453.632 74.5554C457.312 81.6986 459.152 90.4114 459.152 100.693H399.653C399.922 103.9 400.867 106.769 402.493 109.298C404.549 112.22 407.147 114.493 410.286 116.117C413.533 117.632 416.996 118.389 420.676 118.389C425.113 118.389 428.739 117.469 431.553 115.63C434.367 113.682 436.532 111.192 438.047 108.162L457.204 115.63C454.931 120.175 451.954 124.126 448.274 127.481C444.703 130.728 440.428 133.217 435.449 134.949C430.471 136.681 424.789 137.547 418.403 137.547C410.394 137.547 403.305 135.761 397.136 132.189C390.967 128.509 386.096 123.476 382.524 117.091C379.061 110.705 377.329 103.345 377.329 95.0115C377.329 86.6777 379.115 79.318 382.686 72.9324C386.366 66.5467 391.346 61.5685 397.623 57.9968C404.008 54.3171 411.314 52.4764 419.539 52.4763ZM418.89 70.6599C416.401 70.66 413.749 71.2008 410.935 72.283C408.121 73.3653 405.686 75.0972 403.63 77.4783C402.018 79.3582 401.075 81.7934 400.797 84.7839H436.015C435.752 81.7934 434.861 79.3582 433.339 77.4783C431.499 75.0972 429.226 73.3653 426.52 72.283C423.923 71.2006 421.379 70.6599 418.89 70.6599Z" fill="black"/>
<path d="M258.448 52.4763C265.591 52.4763 272.14 54.3708 278.093 58.1589C284.153 61.8387 288.969 67.3043 292.541 74.5554C296.221 81.6986 298.06 90.4114 298.06 100.693H238.562C238.831 103.9 239.777 106.769 241.402 109.298C243.459 112.22 246.056 114.493 249.194 116.117C252.441 117.632 255.905 118.389 259.585 118.389C264.022 118.389 267.648 117.469 270.462 115.63C273.276 113.682 275.441 111.192 276.956 108.162L296.113 115.63C293.84 120.175 290.863 124.126 287.184 127.481C283.612 130.728 279.337 133.217 274.358 134.949C269.38 136.681 263.697 137.547 257.311 137.547C249.303 137.547 242.214 135.761 236.045 132.189C229.876 128.509 225.005 123.476 221.434 117.091C217.97 110.705 216.238 103.345 216.238 95.0115C216.238 86.6777 218.024 79.318 221.596 72.9324C225.275 66.5469 230.254 61.5684 236.531 57.9968C242.917 54.317 250.223 52.4763 258.448 52.4763ZM257.799 70.6599C255.31 70.6599 252.658 71.2007 249.844 72.283C247.03 73.3653 244.594 75.0973 242.538 77.4783C240.927 79.3581 239.985 81.7936 239.706 84.7839H274.924C274.661 81.7935 273.77 79.3582 272.248 77.4783C270.408 75.0973 268.135 73.3653 265.43 72.283C262.832 71.2006 260.288 70.6599 257.799 70.6599Z" fill="black"/>
<path d="M517.21 74.8806C512.231 74.8806 507.523 75.4762 503.086 76.6667C498.757 77.8573 495.239 79.8048 492.533 82.5105C489.912 85.1317 488.56 88.4643 488.478 92.5076L488.475 92.9011V135.598H467.045V54.4246H488.475V69.1277C491.714 64.3969 495.665 60.7944 500.326 58.321C505.738 55.5072 511.366 54.1003 517.21 54.1003V74.8806Z" fill="black"/>
<path d="M600.057 135.598H578.627V94.0378C578.627 88.5182 577.977 84.2431 576.679 81.2126C575.488 78.1822 573.756 76.0173 571.483 74.7185C569.211 73.3116 566.559 72.6082 563.528 72.6082C558.009 72.5 553.733 74.1771 550.703 77.6404C547.872 80.9956 546.413 85.9255 546.324 92.4294L546.32 93.0632V135.598H524.891V54.4255H545.021L545.972 65.3572C548.108 62.0652 550.66 59.3953 553.626 57.3474C558.28 54.1006 563.691 52.4773 569.86 52.4773C576.246 52.4773 581.712 53.7762 586.258 56.3738C590.803 58.9713 594.266 63.03 596.647 68.5496C599.028 73.961 600.165 80.9958 600.057 89.6541V135.598Z" fill="black"/>
<path d="M648.792 137.547C640.566 137.547 633.206 135.761 626.713 132.189C620.327 128.509 615.294 123.477 611.614 117.091C608.043 110.705 606.257 103.346 606.257 95.0119C606.257 86.6781 608.043 79.3184 611.614 72.9327C615.186 66.5471 620.165 61.5685 626.55 57.9968C632.936 54.317 640.241 52.4771 648.467 52.4771C656.801 52.4771 664.16 54.317 670.546 57.9968C676.932 61.5685 681.91 66.5471 685.482 72.9327C689.054 79.3184 690.839 86.6781 690.839 95.0119C690.839 103.346 689.054 110.705 685.482 117.091C681.91 123.477 676.932 128.509 670.546 132.189C664.269 135.761 657.017 137.547 648.792 137.547ZM648.792 117.74C652.796 117.74 656.314 116.766 659.344 114.818C662.375 112.87 664.702 110.218 666.325 106.863C668.057 103.4 668.923 99.4494 668.923 95.0119C668.923 90.5744 668.057 86.6781 666.325 83.3229C664.593 79.8595 662.158 77.1537 659.02 75.2056C655.989 73.2574 652.472 72.2833 648.467 72.2833C644.571 72.2833 641.053 73.2574 637.914 75.2056C634.884 77.1537 632.503 79.8595 630.771 83.3229C629.039 86.6781 628.174 90.5744 628.174 95.0119C628.174 99.4494 629.039 103.4 630.771 106.863C632.503 110.218 634.938 112.87 638.077 114.818C641.215 116.766 644.787 117.74 648.792 117.74Z" fill="black"/>
<path d="M726.069 54.4246H746.362V72.6072H726.069V107.187C726.069 110.651 726.826 113.302 728.341 115.142C729.857 116.874 732.075 117.74 734.998 117.74C736.08 117.74 737.27 117.523 738.569 117.091C739.868 116.549 741.222 115.791 742.629 114.817L750.096 130.889C747.499 132.837 744.576 134.407 741.33 135.597C738.191 136.896 735.051 137.546 731.913 137.546C722.93 137.546 716.111 135.327 711.458 130.889C706.912 126.452 704.639 120.121 704.639 111.895V72.6072H691.489V54.4246H704.639V38.9626L726.069 30.6785V54.4246Z" fill="black"/>
<path d="M792.26 52.4773C799.403 52.4773 805.952 54.3708 811.904 58.1589C817.965 61.8388 822.781 67.305 826.353 74.5564C830.032 81.6996 831.873 90.4122 831.873 100.694H772.374C772.643 103.901 773.588 106.77 775.214 109.299C777.27 112.221 779.867 114.494 783.006 116.117C786.253 117.632 789.717 118.389 793.396 118.389C797.834 118.389 801.459 117.469 804.273 115.63C807.087 113.682 809.252 111.192 810.768 108.162L829.925 115.63C827.652 120.175 824.675 124.126 820.995 127.481C817.424 130.728 813.148 133.217 808.17 134.949C803.191 136.681 797.509 137.547 791.124 137.547C783.115 137.547 776.026 135.761 769.856 132.189C763.687 128.509 758.817 123.476 755.245 117.091C751.782 110.705 750.05 103.345 750.05 95.0115C750.05 86.6777 751.836 79.318 755.407 72.9324C759.087 66.5469 764.066 61.5684 770.343 57.9968C776.728 54.317 784.034 52.4773 792.26 52.4773ZM791.61 70.6599C789.121 70.6599 786.469 71.2007 783.655 72.283C780.841 73.3653 778.406 75.0973 776.35 77.4783C774.738 79.3581 773.796 81.7936 773.518 84.7839H808.735C808.472 81.7935 807.581 79.3582 806.06 77.4783C804.22 75.0972 801.947 73.3653 799.241 72.283C796.644 71.2006 794.1 70.6599 791.61 70.6599Z" fill="black"/>
<path d="M336.411 112.099L358.328 54.4246H380.407L347.127 135.598H325.696L292.416 54.4246H314.495L336.411 112.099Z" fill="black"/>
<path fill-rule="evenodd" clip-rule="evenodd" d="M56.3509 8.63407C62.5493 2.16197 71.4716 -0.952651 80.3511 0.256201C86.3452 1.07232 91.9139 3.80881 96.2236 8.05408L100.646 12.4094H106.538C139.341 12.4095 165.933 39.0021 165.933 71.8048V135.762H165.9C165.894 160.651 159.819 176.952 146.945 187.525C130.396 203.039 98.3336 204.486 79.717 189.593C72.3947 183.735 67.5416 177.182 62.3704 165.806L91.689 154.621C92.6938 156.816 94.5893 160.455 97.6366 163.737C103.878 170.458 116.98 170.492 122.122 165.806C134.533 154.496 123.918 135.767 102.073 135.767L57.7689 135.762C28.9884 135.762 5.11103 114.77 0.612713 87.2617C0.616576 87.2675 0.620659 87.2736 0.624529 87.2794C-1.85755 70.7318 3.21068 65.499 13.1273 65.4988H39.9871C61.9816 65.4987 67.9537 56.2815 67.9537 39.7133V31.2173H63.9725C63.9725 31.2173 63.4426 35.5864 61.8318 39.7133C58.4185 48.4578 55.1294 54.7841 42.2864 54.7842C36.5245 54.7842 30.7622 54.7707 25 54.7672C20.7171 54.7645 16.4342 54.7673 12.1515 54.7852L20.5652 46L56.3509 8.63407ZM122.666 85.1396C114.846 85.1399 108.507 90.3056 108.507 96.6774H136.826C136.826 90.3055 130.486 85.1396 122.666 85.1396Z" fill="#00A82D"/>
</svg>
